# xmcd
#
# Track frame offsets: 
#        150
#        18198
#        35315
#        52051
#        70174
#        90904
#        112541
#        134887
#        156482
#        172872
#        191198
#        209886
#        231654
#        248929
#
# Disc length: 3550 seconds
#
# Revision: 3
# Processed by: cddbd v1.5.2PL0 Copyright (c) Steve Scherf et al.
# Submitted via: ExactAudioCopyFreeDBPlugin 1.0
#
DISCID=c80ddc0e
DTITLE=タッキー＆翼 - TEN
DYEAR=1900
DGENRE=blues
TTITLE0=小悪魔ジュリエット
TTITLE1=Journey Journey ～ボクラノミライ～
TTITLE2=Number One! Only One!
TTITLE3=堕天使ロミオ
TTITLE4=恋詩 -コイウタ-
TTITLE5=Heartful Voice
TTITLE6=土壇場ドリーマー
TTITLE7=Unknown Artist - 24時間・美happy
TTITLE8=パピプペヤッポ Alright!
TTITLE9=WonderlanDream
TTITLE10=愛はタカラモノ
TTITLE11=絆も奇跡もここにある
TTITLE12=Crazy Girl／滝沢秀明
TTITLE13=純／今井翼
EXTD=
EXTT0=
EXTT1=
EXTT2=
EXTT3=
EXTT4=
EXTT5=
EXTT6=
EXTT7=
EXTT8=
EXTT9=
EXTT10=
EXTT11=
EXTT12=
EXTT13=
PLAYORDER=
